<svg xmlns="http://www.w3.org/2000/svg" xmlns:xlink="http://www.w3.org/1999/xlink" width="500" zoomAndPan="magnify" viewBox="0 0 375 374.999991" height="500" preserveAspectRatio="xMidYMid meet" version="1.0"><defs><g/><clipPath id="3cc78a74d5"><path d="M 187.5 0 C 83.945312 0 0 83.945312 0 187.5 C 0 291.054688 83.945312 375 187.5 375 C 291.054688 375 375 291.054688 375 187.5 C 375 83.945312 291.054688 0 187.5 0 Z M 187.5 0 " clip-rule="nonzero"/></clipPath><clipPath id="fd20b1f21b"><path d="M 0 0 L 375 0 L 375 375 L 0 375 Z M 0 0 " clip-rule="nonzero"/></clipPath><clipPath id="c5eb99a165"><path d="M 187.5 0 C 83.945312 0 0 83.945312 0 187.5 C 0 291.054688 83.945312 375 187.5 375 C 291.054688 375 375 291.054688 375 187.5 C 375 83.945312 291.054688 0 187.5 0 Z M 187.5 0 " clip-rule="nonzero"/></clipPath><clipPath id="bbe7e2cc1e"><rect x="0" width="375" y="0" height="375"/></clipPath><clipPath id="6e0c79ac84"><rect x="0" width="217" y="0" height="375"/></clipPath></defs><g clip-path="url(#3cc78a74d5)"><g transform="matrix(1, 0, 0, 1, 0, 0)"><g clip-path="url(#bbe7e2cc1e)"><g clip-path="url(#fd20b1f21b)"><g clip-path="url(#c5eb99a165)"><rect x="-82.5" width="540" fill="#ff751f" height="539.999987" y="-82.499998" fill-opacity="1"/></g></g></g></g></g><g transform="matrix(1, 0, 0, 1, 92, 0)"><g clip-path="url(#6e0c79ac84)"><g fill="#ffffff" fill-opacity="1"><g transform="translate(1.936195, 304.411763)"><g><path d="M 197.515625 -157.484375 C 197.515625 -144.023438 194.425781 -131.726562 188.25 -120.59375 C 182.070312 -109.457031 172.585938 -100.46875 159.796875 -93.625 C 147.003906 -86.789062 131.125 -83.375 112.15625 -83.375 L 77.09375 -83.375 L 77.09375 0 L 20.515625 0 L 20.515625 -232.25 L 112.15625 -232.25 C 130.6875 -232.25 146.347656 -229.050781 159.140625 -222.65625 C 171.929688 -216.257812 181.523438 -207.4375 187.921875 -196.1875 C 194.316406 -184.9375 197.515625 -172.035156 197.515625 -157.484375 Z M 107.859375 -128.375 C 118.660156 -128.375 126.707031 -130.910156 132 -135.984375 C 137.300781 -141.054688 139.953125 -148.222656 139.953125 -157.484375 C 139.953125 -166.742188 137.300781 -173.910156 132 -178.984375 C 126.707031 -184.054688 118.660156 -186.59375 107.859375 -186.59375 L 77.09375 -186.59375 L 77.09375 -128.375 Z M 107.859375 -128.375 "/></g></g></g></g></g></svg>